# xmcd
#
# Track frame offsets:
#	150
#	16040
#	32940
#	46445
#	67990
#	81372
#	102800
#	124210
#	142130
#	159427
#
# Disc length: 2338 seconds
#
# Revision: 1
# Processed by: cddbd v1.4PL0 Copyright (c) Steve Scherf et al.
# Submitted via: audiograbber 1.82.00
#
DISCID=8209200a
DTITLE=Les Sampou - Les Sampou
DYEAR=1999
DGENRE=Blues
TTITLE0=Broken Pieces  
TTITLE1=Hanging By A Thread  
TTITLE2=I Want You  
TTITLE3=My Van Gogh  
TTITLE4=Sitting On Jupiter  
TTITLE5=Happy Anniversary  
TTITLE6=Afraid Of The Dark  
TTITLE7=Baby  
TTITLE8=Same Fine Line  
TTITLE9=Fly
EXTD=
EXTT0=
EXTT1=
EXTT2=
EXTT3=
EXTT4=
EXTT5=
EXTT6=
EXTT7=
EXTT8=
EXTT9=
PLAYORDER=
